<svg width="35" height="21" viewBox="0 0 35 21" fill="none" xmlns="http://www.w3.org/2000/svg">
<path d="M34.6503 2.10409L32.8969 0.350824C32.6633 0.116696 32.3941 0 32.0899 0C31.7863 0 31.5173 0.116696 31.2837 0.350824L17.5002 14.1336L3.71731 0.351193C3.48355 0.117064 3.21454 0.00036831 2.91064 0.00036831C2.60661 0.00036831 2.3376 0.117064 2.10396 0.351193L0.350824 2.10458C0.116696 2.33821 0 2.60723 0 2.91125C0 3.21503 0.117064 3.48404 0.350824 3.71768L16.6935 20.0607C16.9271 20.2945 17.1963 20.4113 17.5002 20.4113C17.8041 20.4113 18.0727 20.2945 18.3062 20.0607L34.6503 3.71768C34.8839 3.48392 35 3.21491 35 2.91125C35 2.60723 34.8839 2.33821 34.6503 2.10409Z" fill="black"/>
</svg>
