<svg width="35" height="35" viewBox="0 0 35 35" fill="none" xmlns="http://www.w3.org/2000/svg">
<path d="M4.66667 13C2.09358 13 0 15.0936 0 17.6667C0 20.2398 2.09358 22.3333 4.66667 22.3333C7.23975 22.3333 9.33333 20.2398 9.33333 17.6667C9.33333 15.0936 7.23975 13 4.66667 13Z" fill="black"/>
<path d="M30.3333 13C27.7602 13 25.6667 15.0936 25.6667 17.6667C25.6667 20.2398 27.7602 22.3333 30.3333 22.3333C32.9064 22.3333 35 20.2398 35 17.6667C35 15.0936 32.9064 13 30.3333 13Z" fill="black"/>
<path d="M17.5 13C14.9269 13 12.8333 15.0936 12.8333 17.6667C12.8333 20.2398 14.9269 22.3333 17.5 22.3333C20.0731 22.3333 22.1667 20.2398 22.1667 17.6667C22.1667 15.0936 20.0731 13 17.5 13Z" fill="black"/>
</svg>
