<svg width="50" height="50" viewBox="0 0 50 50" fill="none" xmlns="http://www.w3.org/2000/svg">
<path d="M50 25C50 38.8071 38.8071 50 25 50C11.1929 50 0 38.8071 0 25C0 11.1929 11.1929 0 25 0C38.8071 0 50 11.1929 50 25Z" fill="white"/>
<path d="M17.78 32.1C15.6733 32.1 14.06 31.38 12.94 29.94L13.44 29.44C14.4133 30.8133 15.9133 31.5 17.94 31.5C19.38 31.5 20.5267 31.2 21.38 30.6C22.2467 29.9867 22.68 29.1 22.68 27.94C22.68 27.5533 22.6 27.22 22.44 26.94C22.28 26.66 22.0467 26.4133 21.74 26.2C21.4333 25.9867 21.04 25.8067 20.56 25.66C20.0933 25.5 19.5533 25.3467 18.94 25.2C18.3267 25.0667 17.78 24.9267 17.3 24.78C16.82 24.62 16.4133 24.4333 16.08 24.22C15.76 23.9933 15.5133 23.7267 15.34 23.42C15.1667 23.1 15.08 22.72 15.08 22.28C15.08 21.56 15.22 20.92 15.5 20.36C15.78 19.7867 16.1733 19.3067 16.68 18.92C17.1867 18.52 17.78 18.22 18.46 18.02C19.1533 17.8067 19.9133 17.7 20.74 17.7C21.62 17.7 22.36 17.8333 22.96 18.1C23.5733 18.3667 24.0867 18.7933 24.5 19.38L24.02 19.9C23.6467 19.3267 23.1867 18.9267 22.64 18.7C22.1067 18.46 21.44 18.34 20.64 18.34C19.7867 18.34 19.0533 18.44 18.44 18.64C17.84 18.8267 17.34 19.0867 16.94 19.42C16.5533 19.7533 16.2667 20.1533 16.08 20.62C15.9067 21.0733 15.82 21.56 15.82 22.08C15.82 22.4533 15.8933 22.7667 16.04 23.02C16.1867 23.2733 16.4 23.4933 16.68 23.68C16.9733 23.8667 17.34 24.0333 17.78 24.18C18.22 24.3133 18.74 24.4467 19.34 24.58C19.9533 24.7267 20.5067 24.88 21 25.04C21.5067 25.2 21.94 25.4 22.3 25.64C22.66 25.88 22.9333 26.1733 23.12 26.52C23.32 26.8533 23.42 27.2667 23.42 27.76C23.42 28.4533 23.28 29.0733 23 29.62C22.7333 30.1533 22.3467 30.6067 21.84 30.98C21.3467 31.34 20.7533 31.62 20.06 31.82C19.38 32.0067 18.62 32.1 17.78 32.1ZM31.2881 18.44H26.2481L26.3681 17.8H37.1481L37.0281 18.44H31.9681L29.0881 32H28.4081L31.2881 18.44Z" fill="black"/>
</svg>
